<svg width="24" height="24" viewBox="0 0 24 24" fill="none" xmlns="http://www.w3.org/2000/svg">
<path d="M8.4 12C8.4 11.0452 8.77928 10.1296 9.45441 9.45444C10.1295 8.77931 11.0452 8.40003 12 8.40003C12.9548 8.40003 13.8705 8.77931 14.5456 9.45444C15.2207 10.1296 15.6 11.0452 15.6 12C15.6 12.9548 15.2207 13.8705 14.5456 14.5456C13.8705 15.2207 12.9548 15.6 12 15.6C11.0452 15.6 10.1295 15.2207 9.45441 14.5456C8.77928 13.8705 8.4 12.9548 8.4 12ZM8.1408 3.39122C8.29067 3.09325 8.52039 2.84277 8.80433 2.66775C9.08827 2.49272 9.41525 2.40003 9.7488 2.40002H14.2656C14.6001 2.40004 14.9279 2.49323 15.2123 2.66916C15.4968 2.84509 15.7266 3.09678 15.876 3.39602L16.578 4.80002H18.606C19.4016 4.80002 20.1647 5.1161 20.7273 5.6787C21.2899 6.24131 21.606 7.00438 21.606 7.80002V17.4C21.606 18.1957 21.2899 18.9587 20.7273 19.5213C20.1647 20.084 19.4016 20.4 18.606 20.4H5.406C4.61035 20.4 3.84729 20.084 3.28468 19.5213C2.72207 18.9587 2.406 18.1957 2.406 17.4V7.80002C2.406 7.00438 2.72207 6.24131 3.28468 5.6787C3.84729 5.1161 4.61035 4.80002 5.406 4.80002H7.434L8.1408 3.39122ZM12 7.20003C10.727 7.20003 9.50606 7.70574 8.60589 8.60591C7.70571 9.50609 7.2 10.727 7.2 12C7.2 13.2731 7.70571 14.494 8.60589 15.3941C9.50606 16.2943 10.727 16.8 12 16.8C13.273 16.8 14.4939 16.2943 15.3941 15.3941C16.2943 14.494 16.8 13.2731 16.8 12C16.8 10.727 16.2943 9.50609 15.3941 8.60591C14.4939 7.70574 13.273 7.20003 12 7.20003Z" fill="#868686"/>
</svg>
