<svg width="30" height="30" viewBox="0 0 30 30" fill="none" xmlns="http://www.w3.org/2000/svg">
<path d="M26.6667 5H3.33335C2.89133 5 2.4674 5.17559 2.15484 5.48816C1.84228 5.80072 1.66669 6.22464 1.66669 6.66667V23.3333C1.66669 23.7754 1.84228 24.1993 2.15484 24.5118C2.4674 24.8244 2.89133 25 3.33335 25H26.6667C27.1087 25 27.5326 24.8244 27.8452 24.5118C28.1578 24.1993 28.3334 23.7754 28.3334 23.3333V6.66667C28.3334 6.22464 28.1578 5.80072 27.8452 5.48816C27.5326 5.17559 27.1087 5 26.6667 5ZM26.6667 23.3333H3.33335V6.66667H26.6667V23.3333Z" fill="#101010"/>
<path d="M7.50002 11.6667H22.5C22.721 11.6667 22.933 11.5789 23.0893 11.4226C23.2456 11.2663 23.3334 11.0543 23.3334 10.8333C23.3334 10.6123 23.2456 10.4004 23.0893 10.2441C22.933 10.0878 22.721 10 22.5 10H7.50002C7.27901 10 7.06705 10.0878 6.91076 10.2441C6.75448 10.4004 6.66669 10.6123 6.66669 10.8333C6.66669 11.0543 6.75448 11.2663 6.91076 11.4226C7.06705 11.5789 7.27901 11.6667 7.50002 11.6667Z" fill="#101010"/>
<path d="M7.50002 15H22.5C22.721 15 22.933 14.9122 23.0893 14.7559C23.2456 14.5996 23.3334 14.3877 23.3334 14.1666C23.3334 13.9456 23.2456 13.7337 23.0893 13.5774C22.933 13.4211 22.721 13.3333 22.5 13.3333H7.50002C7.27901 13.3333 7.06705 13.4211 6.91076 13.5774C6.75448 13.7337 6.66669 13.9456 6.66669 14.1666C6.66669 14.3877 6.75448 14.5996 6.91076 14.7559C7.06705 14.9122 7.27901 15 7.50002 15Z" fill="#101010"/>
<path d="M7.50002 18.3334H15.8334C16.0544 18.3334 16.2663 18.2456 16.4226 18.0893C16.5789 17.933 16.6667 17.721 16.6667 17.5C16.6667 17.279 16.5789 17.067 16.4226 16.9108C16.2663 16.7545 16.0544 16.6667 15.8334 16.6667H7.50002C7.27901 16.6667 7.06705 16.7545 6.91076 16.9108C6.75448 17.067 6.66669 17.279 6.66669 17.5C6.66669 17.721 6.75448 17.933 6.91076 18.0893C7.06705 18.2456 7.27901 18.3334 7.50002 18.3334Z" fill="#101010"/>
</svg>
