<svg width="32" height="32" viewBox="0 0 32 32" fill="none" xmlns="http://www.w3.org/2000/svg">
<path d="M26.2167 7.31934H5.78334C4.67877 7.31934 3.78334 8.21477 3.78334 9.31934V22.6813C3.78334 23.7859 4.67877 24.6813 5.78334 24.6813H26.2167C27.3212 24.6813 28.2167 23.7859 28.2167 22.6813V9.31934C28.2167 8.21477 27.3212 7.31934 26.2167 7.31934Z" stroke="#C2C2C2" stroke-linecap="round" stroke-linejoin="round"/>
<path d="M9.892 16.7C11.2039 16.7 12.2673 15.6365 12.2673 14.3247C12.2673 13.0128 11.2039 11.9493 9.892 11.9493C8.58014 11.9493 7.51666 13.0128 7.51666 14.3247C7.51666 15.6365 8.58014 16.7 9.892 16.7Z" stroke="#C2C2C2" stroke-linecap="round" stroke-linejoin="round"/>
<path d="M19.1393 16.1907H25.5867M6.88533 20.73H13.4073C13.5249 20.7303 13.64 20.6969 13.7391 20.6336C13.8382 20.5704 13.917 20.48 13.9661 20.3732C14.0153 20.2665 14.0328 20.1478 14.0164 20.0314C14.0001 19.915 13.9507 19.8058 13.874 19.7167C13.426 19.1589 12.8584 18.7087 12.2133 18.3994C11.5681 18.0902 10.8618 17.9296 10.1463 17.9296C9.43087 17.9296 8.72454 18.0902 8.07938 18.3994C7.43423 18.7087 6.86672 19.1589 6.41867 19.7167C6.34201 19.8058 6.29257 19.915 6.27623 20.0314C6.2599 20.1478 6.27735 20.2665 6.32652 20.3732C6.37568 20.48 6.45449 20.5704 6.55356 20.6336C6.65263 20.6969 6.76779 20.7303 6.88533 20.73V20.73ZM19.1393 13.9H23.8053H19.1393ZM19.1393 18.4813H23.8053H19.1393Z" stroke="#C2C2C2" stroke-linecap="round" stroke-linejoin="round"/>
</svg>
