<svg width="17" height="22" viewBox="0 0 17 22" fill="none" xmlns="http://www.w3.org/2000/svg">
<g clip-path="url(#clip0_167_7)">
<path d="M8.25 1.84766C9.2526 1.84766 10.112 2.20573 10.8281 2.92188C11.5443 3.63802 11.9023 4.4974 11.9023 5.5C11.9023 6.10156 12.2174 6.40234 12.8477 6.40234C13.4492 6.40234 13.75 6.10156 13.75 5.5C13.75 4.01042 13.2057 2.72135 12.1172 1.63281C11.0286 0.544271 9.73958 0 8.25 0C6.76042 0 5.47135 0.544271 4.38281 1.63281C3.29427 2.72135 2.75 4.01042 2.75 5.5V8.25C1.97656 8.25 1.32487 8.51497 0.794922 9.04492C0.264974 9.57487 0 10.2266 0 11V19.25C0 20.0234 0.264974 20.6751 0.794922 21.2051C1.32487 21.735 1.97656 22 2.75 22H13.75C14.5234 22 15.1751 21.735 15.7051 21.2051C16.235 20.6751 16.5 20.0234 16.5 19.25V11C16.5 10.2266 16.235 9.57487 15.7051 9.04492C15.1751 8.51497 14.5234 8.25 13.75 8.25H4.59766V5.5C4.59766 4.4974 4.95573 3.63802 5.67188 2.92188C6.38802 2.20573 7.2474 1.84766 8.25 1.84766ZM13.75 10.0977C14.3516 10.0977 14.6523 10.3984 14.6523 11V19.25C14.6523 19.8516 14.3516 20.1523 13.75 20.1523H2.75C2.14844 20.1523 1.84766 19.8516 1.84766 19.25V11C1.84766 10.3984 2.14844 10.0977 2.75 10.0977H13.75ZM7.34766 16.3281V17.4023C7.34766 18.0326 7.64844 18.3477 8.25 18.3477C8.85156 18.3477 9.15234 18.0326 9.15234 17.4023V16.3281C10.3841 15.8984 11 15.0391 11 13.75C11 12.9766 10.735 12.3249 10.2051 11.7949C9.67513 11.265 9.02344 11 8.25 11C7.47656 11 6.82487 11.265 6.29492 11.7949C5.76497 12.3249 5.5 12.9766 5.5 13.75C5.5 14.3229 5.67188 14.8457 6.01562 15.3184C6.35938 15.791 6.80339 16.1276 7.34766 16.3281ZM8.25 12.8477C8.85156 12.8477 9.15234 13.1484 9.15234 13.75C9.15234 14.3516 8.85156 14.6523 8.25 14.6523C7.64844 14.6523 7.34766 14.3516 7.34766 13.75C7.34766 13.1484 7.64844 12.8477 8.25 12.8477Z" fill="#C2C2C2"/>
</g>
<defs>
<clipPath id="clip0_167_7">
<rect width="16.5" height="22" fill="white"/>
</clipPath>
</defs>
</svg>
