<svg width="30" height="30" viewBox="0 0 30 30" fill="none" xmlns="http://www.w3.org/2000/svg">
<path d="M17.5 8.75V6.4675C17.5 6.12171 17.4282 5.77969 17.2893 5.46306C17.1503 5.14642 16.9472 4.86204 16.6928 4.62791C16.4383 4.39378 16.1381 4.21498 15.811 4.10281C15.4839 3.99064 15.1371 3.94755 14.7925 3.97625L4.7925 4.80875C4.16756 4.8608 3.58501 5.14581 3.16037 5.60726C2.73574 6.06871 2.50003 6.6729 2.5 7.3V22.7C2.50003 23.3271 2.73574 23.9313 3.16037 24.3927C3.58501 24.8542 4.16756 25.1392 4.7925 25.1912L14.7925 26.025C15.1372 26.0537 15.4841 26.0106 15.8113 25.8983C16.1384 25.7861 16.4388 25.6072 16.6932 25.3729C16.9477 25.1386 17.1508 24.8541 17.2897 24.5373C17.4285 24.2205 17.5002 23.8784 17.5 23.5325V21.25M16.25 15H27.5H16.25ZM27.5 15L23.3337 10L27.5 15ZM27.5 15L23.3337 20L27.5 15Z" stroke="#101010" stroke-width="2" stroke-linecap="round" stroke-linejoin="round"/>
</svg>
