<svg width="24" height="24" viewBox="0 0 24 24" fill="none" xmlns="http://www.w3.org/2000/svg">
<path d="M9.75001 3L9.25801 4.5H7.12501C6.13501 4.5 5.25301 5.145 4.96876 6.09375L3.93751 9.53925L2.48401 9.04725L2.01601 10.4528L3.49201 10.9455L3.02326 12.5392C3.00528 12.608 2.99744 12.679 3.00001 12.75V18.75C3.00001 19.1625 3.33751 19.5 3.75001 19.5H6.00001L6.25801 18.75H17.742L18 19.5H20.25C20.6625 19.5 21 19.1625 21 18.75V18.117C21.003 18.0795 21.003 18.0382 21 18V12.75C21.0026 12.679 20.9947 12.608 20.9768 12.5392L20.508 10.9455L21.984 10.4535L21.5153 9.0465L20.0625 9.53925L19.0313 6.09375C18.8907 5.63171 18.6052 5.22721 18.2168 4.94016C17.8284 4.6531 17.3579 4.49877 16.875 4.5H14.742L14.25 3H9.75001ZM7.12501 6H16.875C17.2088 6 17.505 6.21975 17.6018 6.53925L18.5625 9.75H5.43751L6.39826 6.53925C6.49576 6.21675 6.79126 6 7.12501 6ZM4.99201 11.25H19.008L19.5 12.891V17.25H4.50001V12.8903L4.99201 11.25ZM6.37501 12C6.07664 12 5.79049 12.1185 5.57951 12.3295C5.36853 12.5405 5.25001 12.8266 5.25001 13.125C5.25001 13.4234 5.36853 13.7095 5.57951 13.9205C5.79049 14.1315 6.07664 14.25 6.37501 14.25C6.67338 14.25 6.95952 14.1315 7.1705 13.9205C7.38148 13.7095 7.50001 13.4234 7.50001 13.125C7.50001 12.8266 7.38148 12.5405 7.1705 12.3295C6.95952 12.1185 6.67338 12 6.37501 12ZM17.625 12C17.3266 12 17.0405 12.1185 16.8295 12.3295C16.6185 12.5405 16.5 12.8266 16.5 13.125C16.5 13.4234 16.6185 13.7095 16.8295 13.9205C17.0405 14.1315 17.3266 14.25 17.625 14.25C17.9234 14.25 18.2095 14.1315 18.4205 13.9205C18.6315 13.7095 18.75 13.4234 18.75 13.125C18.75 12.8266 18.6315 12.5405 18.4205 12.3295C18.2095 12.1185 17.9234 12 17.625 12ZM9.00001 14.25L8.06251 16.5H9.67951L10.008 15.75H13.992L14.3205 16.5H15.9375L15 14.25H9.00001Z" fill="#C2C2C2"/>
</svg>
